<svg width="180" height="180" viewBox="0 0 180 180" fill="none" xmlns="http://www.w3.org/2000/svg">
<rect width="180" height="180" rx="20" fill="#0058D3"/>
<path d="M19.52 116V62.56H42.88C46.7733 62.56 50.24 62.96 53.28 63.76C56.32 64.5067 58.72 65.8933 60.48 67.92C62.2933 69.8933 63.2 72.7467 63.2 76.48C63.2 78.9333 62.64 81.0933 61.52 82.96C60.4533 84.8267 58.9067 86.3733 56.88 87.6C59.3867 88.4533 61.4133 89.84 62.96 91.76C64.56 93.68 65.36 96.2667 65.36 99.52C65.36 103.52 64.4533 106.72 62.64 109.12C60.88 111.52 58.3733 113.28 55.12 114.4C51.8667 115.467 48.08 116 43.76 116H19.52ZM32.16 83.68H43.28C45.4133 83.68 47.0667 83.2 48.24 82.24C49.4667 81.2267 50.08 79.8933 50.08 78.24C50.08 76.5333 49.4667 75.2267 48.24 74.32C47.0667 73.36 45.4133 72.88 43.28 72.88H32.16V83.68ZM32.16 105.52H43.84C46.56 105.52 48.5867 104.987 49.92 103.92C51.3067 102.8 52 101.307 52 99.44C52 97.5733 51.3067 96.1067 49.92 95.04C48.5867 93.9733 46.56 93.44 43.84 93.44H32.16V105.52ZM70.6138 116V62.56H111.734V73.68H83.2538V82.96H100.614V94.08H83.2538V104.88H111.734V116H70.6138ZM138.62 116.96C132.807 116.96 127.9 115.787 123.9 113.44C119.953 111.04 117.153 107.707 115.5 103.44L127.02 99.28C127.767 101.84 129.153 103.733 131.18 104.96C133.26 106.187 135.767 106.8 138.7 106.8C140.247 106.8 141.74 106.64 143.18 106.32C144.62 105.947 145.82 105.36 146.78 104.56C147.74 103.707 148.22 102.587 148.22 101.2C148.22 99.3333 147.313 97.8933 145.5 96.88C143.687 95.8133 141.34 95.0133 138.46 94.48L131.98 93.2C129.1 92.6133 126.407 91.7333 123.9 90.56C121.447 89.3333 119.473 87.7333 117.98 85.76C116.487 83.7333 115.74 81.2 115.74 78.16C115.74 75.28 116.407 72.8 117.74 70.72C119.073 68.64 120.833 66.9333 123.02 65.6C125.26 64.2667 127.713 63.28 130.38 62.64C133.047 61.9467 135.713 61.6 138.38 61.6C141.26 61.6 144.033 62 146.7 62.8C149.42 63.6 151.847 64.8533 153.98 66.56C156.113 68.2133 157.74 70.4267 158.86 73.2L147.42 77.36C146.727 75.5467 145.473 74.16 143.66 73.2C141.9 72.24 139.767 71.76 137.26 71.76C134.807 71.76 132.753 72.2133 131.1 73.12C129.5 73.9733 128.7 75.2267 128.7 76.88C128.7 78.2133 129.26 79.36 130.38 80.32C131.5 81.28 132.967 81.9467 134.78 82.32L141.98 83.76C144.167 84.1867 146.38 84.7467 148.62 85.44C150.86 86.08 152.913 86.96 154.78 88.08C156.7 89.1467 158.247 90.5867 159.42 92.4C160.593 94.2133 161.18 96.5067 161.18 99.28C161.18 102.107 160.513 104.64 159.18 106.88C157.9 109.067 156.167 110.907 153.98 112.4C151.847 113.893 149.447 115.04 146.78 115.84C144.113 116.587 141.393 116.96 138.62 116.96Z" fill="white"/>
</svg>
